# xmcd CD database file
#
# Track frame offsets:
#	150
#	23771
#	43223
#	64666
#	86330
#	100427
#	108168
#	119418
#	125435
#	138305
#	150273
#	159982
#	171376
#	188704
#	209175
#	228031
#	237544
#	260606
#	276362
#
# Disc length: 4001 seconds
#
# Revision: 0
# Processed by: cddbd v1.5.1PL0 Copyright (c) Steve Scherf et al.
# Submitted via: CDex 1.51
#
DISCID=0a0f9f13
DTITLE=MOTOI SAKURABA - MARIO SPORTS CD  MARIO TENNIS GC and MARIO GOLF FAMILY TOUR THE BEST
DYEAR=2004
DGENRE=Game
TTITLE0=オープニング
TTITLE1=ワールドオープン 決勝戦＆メニュー
TTITLE2=ギミックマスターズ 決勝戦
TTITLE3=トーナメント １回戦&２回戦
TTITLE4=ピーチのお城 スペシャルコース 〜ペイントテニス
TTITLE5=ルイージマンション メインテーマ　ギミックコート 〜ルイージマンションコート
TTITLE6=ワリオ スペシャルゲーム 〜ファクトリーファイト
TTITLE7=マリオブラザーズ　ギミックコート 〜マリオクラッシクコート
TTITLE8=クッパのテーマ　ギミックコート 〜クッパキャッスルコート
TTITLE9=リコハーバー　ギミックコート 〜ボスゲッソーコート
TTITLE10=ドンキー　ギミックコート 〜ドンキージャングルコート
TTITLE11=ドルピックタウン　ギミックコート 〜ドルピックタウンコート
TTITLE12=表彰式
TTITLE13=ストローク 〜マーレビーチ
TTITLE14=メニュー
TTITLE15=ボーナストラック
TTITLE16=トーナメント 〜ジャンゴクラシック＆コインショット
TTITLE17=タイトル
TTITLE18=トーナメント 〜ビアンコトーナメント＆キャラマッチ
EXTD=YEAR: 2004
EXTT0=
EXTT1=
EXTT2=
EXTT3=
EXTT4=
EXTT5=
EXTT6=
EXTT7=
EXTT8=
EXTT9=
EXTT10=
EXTT11=
EXTT12=
EXTT13=
EXTT14=
EXTT15=
EXTT16=
EXTT17=
EXTT18=
PLAYORDER=
